<?xml version="1.0" encoding="UTF-8" standalone="no"?>
<svg
   width="241.89279"
   zoomAndPan="magnify"
   viewBox="0 0 181.4196 208.08984"
   height="277.45312"
   preserveAspectRatio="xMidYMid"
   version="1.0"
   id="svg21"
   sodipodi:docname="argologo.svg"
   xml:space="preserve"
   inkscape:version="1.4.3 (0d15f75, 2025-12-25)"
   xmlns:inkscape="http://www.inkscape.org/namespaces/inkscape"
   xmlns:sodipodi="http://sodipodi.sourceforge.net/DTD/sodipodi-0.dtd"
   xmlns="http://www.w3.org/2000/svg"
   xmlns:svg="http://www.w3.org/2000/svg"><sodipodi:namedview
     id="namedview21"
     pagecolor="#ffffff"
     bordercolor="#999999"
     borderopacity="1"
     inkscape:showpageshadow="2"
     inkscape:pageopacity="0"
     inkscape:pagecheckerboard="0"
     inkscape:deskcolor="#d1d1d1"
     inkscape:zoom="1.6082984"
     inkscape:cx="165.39219"
     inkscape:cy="228.19148"
     inkscape:window-width="1470"
     inkscape:window-height="923"
     inkscape:window-x="0"
     inkscape:window-y="33"
     inkscape:window-maximized="0"
     inkscape:current-layer="g39"><inkscape:page
       x="0"
       y="0"
       width="181.4196"
       height="208.08984"
       id="page2"
       margin="0"
       bleed="0" /></sodipodi:namedview><defs
     id="defs4"><style
       id="style1">
      .st0, .st1 {
        stroke-width: .75px;
      }

      .st0, .st1, .st2, .st3 {
        stroke: #1d1d1b;
        stroke-miterlimit: 10;
      }

      .st0, .st4 {
        fill: none;
      }

      .st5 {
        clip-path: url(#clippath-6);
      }

      .st6 {
        clip-path: url(#clippath-7);
      }

      .st7 {
        clip-path: url(#clippath-4);
      }

      .st1, .st8, .st2, .st3 {
        fill: #1d1d1b;
      }

      .st9 {
        clip-path: url(#clippath-9);
      }

      .st10 {
        fill: #fff;
      }

      .st11 {
        fill: #00983a;
      }

      .st2 {
        stroke-width: .5px;
      }

      .st2, .st3 {
        stroke-linecap: round;
      }

      .st12 {
        fill: #e30613;
      }

      .st13 {
        clip-path: url(#clippath-1);
      }

      .st14 {
        isolation: isolate;
      }

      .st15 {
        clip-path: url(#clippath-5);
      }

      .st16 {
        clip-path: url(#clippath-8);
      }

      .st17 {
        clip-path: url(#clippath-3);
      }

      .st18 {
        fill: #a41d32;
      }

      .st19 {
        fill: #010101;
      }

      .st20 {
        clip-path: url(#clippath-2);
      }

      .st21 {
        fill: #08683d;
      }
    </style><clipPath
       id="clippath-3"><rect
         class="st4"
         x="225.73"
         y="430.32999"
         width="130.53"
         height="14.79"
         id="rect3" /></clipPath><clipPath
       id="clippath-4"><rect
         class="st4"
         x="225.16"
         y="430.13"
         width="132"
         height="16"
         id="rect4-9" /></clipPath><clipPath
       id="clippath-5"><rect
         class="st4"
         x="225.73"
         y="430.32999"
         width="130.53"
         height="14.79"
         id="rect5" /></clipPath><clipPath
       id="clippath-6"><rect
         class="st4"
         x="529.91998"
         y="430.32999"
         width="130.53"
         height="14.79"
         id="rect6" /></clipPath><clipPath
       id="clippath-7"><rect
         class="st4"
         x="529.15997"
         y="430.13"
         width="132"
         height="16"
         id="rect7" /></clipPath><clipPath
       id="clippath-8"><rect
         class="st4"
         x="529.91998"
         y="430.32999"
         width="130.53"
         height="14.79"
         id="rect8" /></clipPath></defs><g
     id="g39"
     transform="translate(2291.4897,1272.0584)"><path
       style="fill:#000000;stroke:none;stroke-width:0.372323;stroke-dasharray:none"
       d="m -2117.6207,-1003.7968 c -1.0215,-0.068 -2.3853,-0.4144 -3.019,-0.5671 -0.4439,-0.1069 -1.61,-0.4666 -2.2139,-0.6892 -0.9516,-0.3716 -1.902,-0.7556 -2.8177,-1.206 -1.0068,-0.5597 -1.9951,-1.1773 -2.8648,-1.9327 -0.9226,-0.8013 -1.7491,-1.7247 -2.4556,-2.7219 -0.5322,-0.7512 -1.1769,-2.1163 -1.3214,-2.4256 -0.4061,-0.8691 -0.7211,-1.8557 -1.0749,-3.1319 -0.083,-0.2987 -0.1512,-0.6015 -0.2086,-0.906 -0.099,-0.5287 -0.1955,-1.0602 -0.2341,-1.5967 -0.085,-1.1715 -0.1386,-2.3582 0.01,-3.5236 0.2267,-1.8208 0.6499,-3.6386 1.34,-5.3385 0.5829,-1.4358 1.3869,-2.7934 2.3311,-4.0219 0.7146,-0.9301 1.5856,-1.7402 2.4872,-2.4884 1.6135,-1.2021 3.4445,-2.1176 5.3115,-2.8677 1.1314,-0.4544 2.9434,-0.8745 3.5261,-0.9718 2.7324,-0.3174 5.5085,-0.5129 8.252,-0.04 0.6099,0.1164 1.2116,0.2746 1.8114,0.4362 0.6336,0.1707 1.2676,0.3394 1.8848,0.5641 l 0.021,0.3165 0.01,2.97 0.01,2.97 -0.01,0.1652 -0.2535,-0.1652 c -1.3517,-0.7828 -2.9916,-1.5664 -4.628,-1.8582 -2.0767,-0.3705 -5.534,-0.043 -7.4096,0.8514 -0.8381,0.3997 -1.6128,0.9459 -2.3045,1.5656 -0.5734,0.5137 -1.0497,1.1327 -1.4996,1.7566 -1.1459,1.7543 -1.7153,4.5712 -1.8033,5.0339 -0.4883,3.3699 -0.7372,9.5126 3.987,13.1524 1.9292,1.6373 4.0161,1.7029 6.4997,1.647 l 0.7855,-0.015 -0.01,-0.402 v -5.6278 -5.628 c 0,-0.98 -0.3954,-1.8278 -0.9931,-2.6233 l -0.5131,-0.7047 -0.097,-0.1339 0.1939,-3e-4 3.7736,0.02 3.7737,0.021 c 1.3019,0.2285 2.148,1.357 2.4152,2.5094 l 0.062,8.0685 0.062,8.0686 c 0,0 -0.5106,0.1497 -0.7659,0.2245 -1.5196,0.3765 -3.042,0.8252 -4.5899,1.0795 -2.4655,0.2957 -4.1313,0.3885 -7.4474,0.1664 z m -54.123,-0.6382 -2.9361,0.056 h -0.1345 l 0.1345,-0.3997 c 3.339,-9.7251 6.7289,-19.5099 9.8621,-29.3407 0.1227,-0.4808 0.1517,-0.9438 0,-1.4253 -0.095,-0.3006 -0.2838,-0.5651 -0.4615,-0.8255 -0.168,-0.2465 -0.3675,-0.4708 -0.568,-0.692 -0.1033,-0.114 -0.3265,-0.3264 -0.3265,-0.3264 l -0.3266,-0.3265 4.6597,-0.054 4.6596,-0.053 c 1.421,0.057 2.6562,0.9855 3.2078,2.192 0.1323,0.2893 0.2841,0.5709 0.3897,0.8709 3.551,10.0906 7.0837,20.1959 10.6033,30.2684 l -4.5789,0.055 -4.5788,0.054 c 0,0 -2.8369,-8.426 -2.8413,-8.4346 l -5.537,-0.027 h -5.2587 -0.2512 l -0.1746,0.5118 c -0.011,0.026 -2.6069,7.8429 -2.6069,7.8429 z m 15.0646,-13.2883 c -0.041,-0.1079 -2.7319,-8.1378 -3.7788,-11.2317 l -0.1362,-0.38 -0.1313,0.38 -3.5425,10.6435 -0.2004,0.6378 h 0.4732 c 2.454,-0.024 4.8682,-0.048 7.316,-0.047 z m 71.077,13.3332 h -3.8747 l -0.2677,-5e-4 v -0.2677 l -0.014,-28.827 c -3e-4,-0.8554 -0.209,-1.7195 -0.5381,-2.5089 -0.1709,-0.41 -0.4493,-0.7705 -0.7291,-1.1155 -0.1793,-0.2208 -0.6026,-0.604 -0.6026,-0.604 l 6.6138,-0.121 c 0,0 0.5755,0.089 0.8521,0.1759 0.2625,0.083 0.5126,0.2024 0.758,0.3269 0.1633,0.083 0.3187,0.1809 0.4735,0.2786 0.1549,0.098 0.3152,0.189 0.455,0.3069 0.2996,0.2528 0.5906,0.5271 0.8125,0.8504 0.209,0.3042 0.4729,1.0012 0.4729,1.0012 l 0.069,5.335 0.068,5.3349 -0.01,0.307 c 0,0 10.2134,0.065 10.2386,0.067 0,0 -0.011,-0.2906 -0.011,-0.3934 0.01,-2.2115 0.053,-6.6345 0.053,-6.6345 l 0.054,-6.6344 h 4.3273 4.3272 v 33.0218 h -4.3272 -4.3273 l -0.053,-6.9671 -0.029,-7.2114 c -2.9734,-0.043 -8.2139,-0.051 -10.2895,-0.01 l 0.01,0.2369 v 13.8072 l -0.01,0.2423 h -0.6319 z"
       id="path21-3"
       sodipodi:nodetypes="ssaaaaaaaaaaaaaassccccccaaasscccccssccccccccsascccccsasccccsscccccccccccccccccccccccsaaccaaaaacccccsccccccccccccccc" /><g
       class="st17"
       clip-path="url(#clippath-3)"
       id="g18-4"
       transform="matrix(0.74999999,0,0,0.74999999,-2450.6839,-1348.8936)"><g
         class="st7"
         clip-path="url(#clippath-4)"
         id="g17-5"><g
           class="st15"
           clip-path="url(#clippath-5)"
           id="g16-5"><path
             class="st21"
             d="m 225.73,430.33 h 130.52 v 14.79 H 225.73 Z"
             id="path15" /></g></g></g><g
       class="st5"
       clip-path="url(#clippath-6)"
       id="g21-1"
       transform="matrix(0.74999999,0,0,0.74999999,-2450.6839,-1348.8936)"><g
         class="st6"
         clip-path="url(#clippath-7)"
         id="g20-7"><g
           class="st16"
           clip-path="url(#clippath-8)"
           id="g19-1"><path
             class="st18"
             d="m 529.92,430.33 h 130.52 v 14.79 H 529.92 Z"
             id="path18" /></g></g></g><path
       class="st1"
       d="m -2131.8064,-1226.5536 c -9.03,4.32 -8.3175,4.3875 -16.1775,8.04 -2.475,1.1475 -5.025,2.3175 -8.9775,4.275 -1.98,0.9825 -4.26,2.16 -7.635,3.9825 -8.7375,4.7175 -18.165,9.81 -30.18,17.805 -7.6875,5.115 -16.335,11.355 -25.4925,18.8625 -14.4525,11.8575 -24.375,22.1175 -28.89,26.955 -8.565,9.1575 -12.69,14.7975 -14.6475,17.5725 -4.905,6.9525 -7.8825,12.51 -9.93,16.3725 0,0 -4.9275,9.2775 -8.1825,20.5125 -0.2475,0.8625 -0.9075,3.195 -0.885,6.27 0.015,1.965 0.068,4.605 1.605,7.275 0.8625,1.5 1.815,2.355 3.585,3.945 2.115,1.8975 4.0725,3.2175 5.4825,4.0575 -0.6525,-0.645 -1.1775,-1.2 -1.575,-1.635 -0.1275,-0.1425 -0.5625,-0.615 -1.05,-1.305 -0.405,-0.5775 -0.5475,-0.87 -0.6,-1.2225 -0.06,-0.45 0.053,-0.81 0.09,-0.9375 0.1725,-0.555 0.5925,-1.0275 2.4075,-2.175 1.56,-0.975 2.6775,-1.5225 3.195,-1.7625 0.525,-0.2475 0.9825,-0.435 1.335,-0.5775 0.51,-0.2025 0.9225,-0.3525 1.23,-0.465 0.42,-0.15 0.735,-0.255 0.8325,-0.285 0.2175,-0.067 0.765,-0.2475 1.6125,-0.4875 0.8925,-0.2475 1.575,-0.4125 2.3475,-0.6 0.6375,-0.15 1.1775,-0.2775 1.575,-0.36 l 0.8325,-0.18 c 0,0 0.3975,-0.09 0.4275,-0.097 0.3975,-0.09 0.8925,-0.1725 1.35,-0.24 0.81,-0.1275 0.3,-0.053 1.2825,-0.2025 0.765,-0.12 1.38,-0.21 1.47,-0.225 2.8725,-0.4275 6.5475,-0.585 6.5475,-0.585 9.8025,-0.315 18.1875,0.3225 18.1875,0.3225 6.93,0.51 10.995,0.81 16.65,2.1375 2.685,0.63 7.0875,1.8075 12.2325,3.9075 5.2125,2.1225 9.345,4.44 12.57,6.2475 1.785,0.9975 3.255,1.875 4.29,2.4975 -0.045,-0.082 -0.09,-0.1575 -0.1425,-0.24 -0.18,-0.345 -0.4725,-0.885 -0.825,-1.5525 -2.9025,-5.55 -6.24,-12.3825 -8.625,-20.6775 -1.185,-4.1325 -1.62,-7.68 -1.7925,-9.9825 -0.4875,-6.39 0.3825,-11.2575 1.0425,-14.79 0.375,-2.0325 1.5225,-7.71 5.1,-16.5525 1.17,-2.8875 3.825,-9.165 9.84,-19.4625 1.965,-3.3675 7.3575,-12.42 16.5525,-24.8475 6.99,-9.45 12.675,-16.1025 17.775,-22.0425 10.98,-12.8025 20.835,-22.9725 28.1475,-30.48 2.6175,-2.685 4.8075,-4.905 6.3375,-6.4425 -1.23,0.555 -3.015,1.3725 -5.175,2.355 -7.5075,3.435 -11.265,5.1525 -15.135,7.005 z"
       id="path25-7"
       style="fill:#000000;stroke:#000000;stroke-opacity:1" /><path
       class="st4"
       d="M -2260.9339,-1063.9686"
       id="path26-6"
       style="stroke-width:0.75" /><rect
       class="st8"
       x="-2194.9714"
       y="-1221.2961"
       width="4.5075002"
       height="30.382498"
       id="rect26"
       style="fill:#000000;stroke-width:0.75" /><line
       class="st3"
       x1="-2181.479"
       y1="-1225.8936"
       x2="-2190.5464"
       y2="-1220.6136"
       id="line26"
       style="fill:#000000;stroke:#000000;stroke-width:0.75;stroke-opacity:1" /><path
       class="st3"
       d="m -2186.3239,-1233.3261 c 0.9525,0.023 2.265,0.1425 3.75,0.6075 0.9075,0.285 1.6725,0.63 2.2875,0.96 -0.33,1.7175 -0.66,3.435 -0.99,5.1525 -0.6975,-0.8025 -1.4025,-1.605 -2.1,-2.415"
       id="path27-1"
       style="fill:#000000;stroke:#000000;stroke-width:0.75;stroke-opacity:1" /><line
       class="st3"
       x1="-2201.8188"
       y1="-1225.5035"
       x2="-2194.5439"
       y2="-1221.2511"
       id="line27"
       style="fill:#000000;stroke:#000000;stroke-width:0.75;stroke-opacity:1" /><path
       class="st2"
       d="m -2202.0289,-1225.5036 c -0.3825,-2.2575 -0.69,-4.635 -1.0725,-6.8925 0.405,-0.2175 0.93,-0.465 1.575,-0.6375 0.9225,-0.255 2.5275,-0.7875 2.31,-0.255 -3,7.1625 -2.6475,7.23 -2.6475,7.23 l 1.0425,1.3125 c 6.1425,3.0825 7.5075,4.1325 7.5075,4.1325 l 3.3825,-0.3675 2.715,-1.575 3.7725,-2.1975 1.965,-1.3125 v -1.65 c 0,0 -1.83,-3.5625 -1.83,-3.5625 l -2.7075,-2.0325 h -12.09 c 0,0 -0.885,0.315 -0.885,0.315 l -0.96,0.24 0.12,0.3375 -0.097,0.3825"
       id="path28-4"
       style="fill:#000000;stroke:#000000;stroke-opacity:1" /><line
       class="st3"
       x1="-2199.0889"
       y1="-1233.326"
       x2="-2185.6414"
       y2="-1233.326"
       id="line28"
       style="fill:#000000;stroke:#000000;stroke-width:0.75;stroke-opacity:1" /><polyline
       class="st3"
       points="345.94 103.37 344.89 153.68 346.88 153.68 346.88 103.41"
       id="polyline28"
       transform="matrix(0.74999999,0,0,0.74999999,-2450.6839,-1348.8936)"
       style="fill:#000000;stroke:#000000;stroke-opacity:1" /><path
       class="st0"
       d="m -2191.3039,-1271.3661 c 0.023,-0.4875 0.915,-0.54 0.87,0.03"
       id="path29" /><path
       class="st11"
       d="m -2291.4064,-1226.1036 c 4.2434,-2.4794 7.3184,-4.3205 8.9025,-5.3625 1.29,-0.6675 2.5875,-1.245 2.5875,-1.245 0.81,-0.36 1.2825,-0.5775 1.9875,-0.825 0.8925,-0.3225 1.0275,-0.3 1.8825,-0.6375 1.23,-0.48 1.62,-0.78 1.8225,-0.945 0.4275,-0.36 0.36,-0.4425 0.8025,-0.8025 0.33,-0.27 0.885,-0.7125 1.6125,-0.8175 0.855,-0.12 1.035,0.36 1.89,0.2175 0.4875,-0.082 0.84,-0.3075 1.305,-0.6075 0.81,-0.525 0.8475,-0.84 1.3875,-1.05 0.5175,-0.21 0.735,-0.023 1.59,0 0.2925,0 2.025,0.015 3.375,-0.9675 0.195,-0.1425 0.465,-0.45 1.02,-1.065 1.3875,-1.56 1.4025,-1.8 2.205,-2.625 0.6825,-0.705 1.4025,-1.4325 2.5875,-1.965 0.2025,-0.09 0.96,-0.42 2.01,-0.5775 0.555,-0.082 0.8475,-0.067 2.025,-0.045 1.755,0.03 2.6325,0.045 3.57,0 0.93,-0.045 1.62,-0.12 2.235,-0.195 1.095,-0.1275 1.2975,-0.195 3.3975,-0.5175 1.98,-0.3 1.83,-0.2475 2.6325,-0.3975 1.185,-0.225 1.4475,-0.3375 2.8275,-0.5775 0.9075,-0.1575 1.3725,-0.24 2.025,-0.2775 0.465,-0.023 0.45,0 1.8675,-0.023 1.425,-0.023 1.1775,-0.045 1.545,-0.037 0.9,0.03 1.1325,0.12 1.53,-0.045 0.36,-0.15 0.5775,-0.3975 0.87,-0.7425 0.525,-0.6075 0.4275,-0.825 0.9225,-1.32 0.225,-0.2325 0.5175,-0.525 0.9825,-0.645 0.12,-0.03 0.3825,-0.045 0.9075,-0.082 0.3225,-0.023 0.465,-0.023 0.8175,-0.037 0.6225,-0.03 0.9375,-0.045 0.9825,-0.06 0.6075,-0.1575 0.93,-0.78 1.2225,-1.3275 0.3,-0.57 0.405,-1.065 0.5625,-1.785 0.1575,-0.7275 0.1125,-0.84 0.2175,-1.2675 0.2625,-1.11 0.9,-1.8675 1.125,-2.13 1.05,-1.2225 2.3925,-1.59 3.075,-1.77 1.4025,-0.3825 2.5725,-0.2475 3.15,-0.18 1.1325,0.135 2.9775,0.585 3.78,0.78 0.037,0.01 0.7125,0.1725 1.5675,0.06 0.675,-0.09 0.9,-0.2775 1.005,-0.3975 0.15,-0.165 0.1425,-0.2775 0.3225,-0.825 0.2025,-0.6375 0.3075,-0.9525 0.465,-1.17 0.06,-0.082 0.435,-0.5925 1.0875,-0.765 0.21,-0.06 0.3825,-0.06 0.465,-0.06 1.995,-0.015 2.9925,-0.023 3.5175,0.023 1.92,0.165 2.175,0.3225 2.715,0.045 0.6225,-0.315 1.095,-0.93 1.17,-1.0425 0.4575,-0.615 0.375,-0.9 0.8475,-1.3875 0.42,-0.435 0.915,-0.6375 1.2,-0.7275 0.3225,-0.105 0.3825,-0.06 1.3875,-0.18 0.69,-0.082 1.0425,-0.1275 1.23,-0.225 0.5475,-0.2925 0.78,-0.8625 0.93,-1.245 0.27,-0.675 0.315,-1.41 0.36,-2.13 0,-0.053 0.015,-0.285 0.06,-0.585 0.06,-0.42 0.09,-0.6375 0.195,-0.84 0.1575,-0.315 0.3825,-0.5025 0.6225,-0.6975 0.18,-0.15 0.3,-0.24 0.48,-0.315 0.375,-0.1425 0.9427,-0.2213 0.9397,-0.047 -0.045,2.6391 -0.122,5.2288 -0.1592,7.8639 -0.01,0.4578 -0.7039,-0.1268 -1.1233,0.01 -0.3675,0.225 -0.51,0.5925 -0.585,0.78 -0.1425,0.3675 -0.075,0.495 -0.1575,1.1025 -0.09,0.6525 -0.135,0.9825 -0.345,1.2675 -0.375,0.5025 -1.0125,0.615 -1.2225,0.645 -0.5475,0.09 -1.0125,-0.045 -1.5225,-0.195 -0.6525,-0.195 -0.7125,-0.3375 -1.1025,-0.3375 -0.5325,0 -0.945,0.285 -1.14,0.42 -0.57,0.39 -0.39,0.6 -0.9,0.9375 -0.5325,0.3525 -1.1925,0.4275 -1.6875,0.4875 -0.135,0.015 -0.225,0.023 -0.36,0.03 -0.465,0.03 -1.44,0.105 -2.5875,-0.03 -0.33,-0.037 -0.7875,-0.1125 -1.38,0.03 -0.068,0.015 -0.1275,0.03 -0.18,0.045 -0.1725,0.053 -0.525,0.165 -1.5675,0.9225 -0.3675,0.2625 -0.5475,0.39 -0.63,0.48 0,0 -0.135,0.135 -0.285,0.2325 l -0.15,0.09 c 0,0 -0.037,0.015 -0.068,0.03 -0.7725,0.345 -2.5875,-0.03 -2.5875,-0.03 -0.195,-0.037 -0.435,-0.09 -0.7425,-0.18 -0.45,-0.1275 -0.63,-0.21 -1.1025,-0.36 -0.3375,-0.105 -0.585,-0.165 -0.87,-0.24 -0.435,-0.1125 -1.32,-0.33 -2.37,-0.4275 -0.825,-0.075 -1.695,-0.1575 -2.775,0.082 -0.6825,0.15 -1.245,0.285 -1.725,0.78 -0.4275,0.4425 -0.5925,0.975 -0.705,1.35 -0.12,0.405 -0.15,0.78 -0.2175,1.53 -0.037,0.4875 -0.09,1.1325 -0.075,1.395 0,0.037 0.015,0.18 -0.01,0.3675 0,0 -0.01,0.067 -0.03,0.1425 -0.022,0.105 -0.5025,1.8525 -2.0475,2.4525 -0.66,0.255 -1.395,0.255 -1.7325,0.255 -0.375,0 -0.7125,-0.037 -1.2225,0.075 -0.2325,0.053 -0.5325,0.12 -0.8475,0.315 -0.285,0.1725 -0.435,0.3525 -0.9675,1.0425 -0.7575,0.9825 -0.7275,0.9675 -0.8025,1.02 -0.54,0.375 -1.3275,0.4875 -1.6725,0.54 -0.06,0.01 -0.105,0.015 -0.15,0.023 -0.855,0.105 -1.53,0.067 -1.8,0.052 -0.7125,-0.037 -1.5225,-0.082 -2.19,-0.082 -0.6825,0 -0.945,0.053 -2.205,0.165 -1.2525,0.12 -1.0125,0.067 -3.075,0.24 -2.64,0.2175 -2.4225,0.24 -3.675,0.3225 -0.885,0.053 -1.7925,0.082 -3.6,0.135 -2.565,0.075 -2.6175,0.037 -3.57,0.105 -0.1575,0.01 -1.755,0.1275 -3.7575,0.5475 -0.81,0.1725 -1.4175,0.33 -2.07,0.7425 -0.6375,0.3975 -1.0575,0.8625 -1.245,1.0875 -0.555,0.6675 -0.48,0.915 -1.08,1.7925 -0.375,0.555 -0.6975,1.0275 -1.26,1.4475 -0.5475,0.4125 -1.1025,0.5625 -2.205,0.8775 -0.975,0.2775 -1.47,0.4125 -2.13,0.4275 -0.96,0.03 -1.3275,-0.195 -1.8525,0.105 -0.2925,0.165 -0.7425,0.555 -0.945,0.8175 -0.082,0.098 -0.1725,0.225 -0.1725,0.225 -0.165,0.2175 -0.2475,0.3525 -0.285,0.3975 -0.285,0.3975 -1.1325,0.4125 -1.6875,0.42 -0.2925,0 -0.435,0 -0.6225,-0.023 -0.1875,-0.03 -0.345,-0.075 -0.6,-0.075 -0.105,0 -0.195,0.01 -0.2775,0.023 0,0 -0.1575,0.022 -0.3075,0.075 -0.6375,0.225 -1.2525,0.795 -1.2525,0.795 -0.7275,0.6825 -1.635,0.9525 -2.655,1.26 -0.735,0.2175 -0.585,0.068 -1.3425,0.285 -1.11,0.3225 -2.04,0.8325 -2.9175,1.32 -0.1875,0.105 -0.54,0.3 -1.05,0.5475 -0.3825,0.1875 -0.3975,0.18 -0.8475,0.39 -0.63,0.3 -1.125,0.555 -1.6725,0.8475 -0.3,0.1575 -0.5325,0.285 -0.6525,0.345 -1.5075,0.8175 -2.9522,1.6192 -2.9522,1.6192 -0.84,0.4875 -2.1028,1.2458 -4.1278,2.3558"
       id="path30"
       sodipodi:nodetypes="ccccccccccccscccccscccscsccccccccccccccccccsccsccccscccccccssccccccscscccccccccccccccccccccccscccccccsccccccccccccccccccscccccccccccc"
       style="stroke-width:0.75" /><path
       class="st4"
       d="M -2268.5089,-1236.1911"
       id="path31"
       style="stroke-width:0.75" /><path
       class="st11"
       d="M -2188.8439,-1260.4536"
       id="path32"
       style="stroke-width:0.75" /><path
       class="st8"
       d="m -2287.5139,-1228.2036 c 2.175,-1.2 2.5725,-1.4475 3.615,-1.9425 0.5325,-0.255 1.1175,-0.5175 2.28,-1.08 0.6,-0.2925 0.8475,-0.4125 1.395,-0.6675 0.6525,-0.3075 1.1625,-0.54 1.8525,-0.81 0.7125,-0.2775 1.0725,-0.42 1.6125,-0.555 0.48,-0.12 0.5925,-0.1125 1.2375,-0.285 0.4875,-0.1275 0.495,-0.15 1.125,-0.3225 0.5925,-0.1575 0.6825,-0.165 1.11,-0.2925 0.4425,-0.135 0.7875,-0.2625 0.87,-0.3 0.7275,-0.2775 0.765,-0.375 1.17,-0.4725 0.2325,-0.06 0.2025,-0.023 1.0275,-0.09 0.675,-0.053 1.0275,-0.082 1.41,-0.18 0.285,-0.068 0.5475,-0.135 0.87,-0.3 0.3975,-0.2025 0.6675,-0.4575 0.84,-0.615 0.45,-0.4125 0.495,-0.6225 0.84,-0.7575 0.1575,-0.06 0.2325,-0.06 0.5775,-0.09 0.24,-0.023 0.915,-0.09 1.4625,-0.225 0.5475,-0.135 0.4875,-0.21 1.23,-0.4275 0.285,-0.082 0.615,-0.1725 1.0425,-0.2325 0.675,-0.09 0.765,0.015 1.455,-0.053 0.6525,-0.067 1.11,-0.12 1.3875,-0.4575 0.15,-0.1875 0.1275,-0.3075 0.2625,-0.9 0.097,-0.4275 0.2325,-1.0275 0.4575,-1.5075 0.315,-0.6525 0.7725,-1.035 1.0875,-1.2975 0.5475,-0.4575 1.035,-0.66 1.6125,-0.9 1.005,-0.4125 1.845,-0.5625 2.1825,-0.6075 0.6975,-0.105 0.9675,-0.06 2.475,-0.038 1.1925,0.023 2.3925,0 3.585,0 1.4775,0 2.2275,0 2.595,-0.015 0.69,-0.015 0.9675,-0.038 3.2475,-0.15 1.6725,-0.082 2.52,-0.1275 2.7225,-0.135 0.87,-0.023 0.66,0 3.645,0.015 1.455,0 1.6725,0 2.2425,0.03 0.7575,0.037 1.02,0.082 1.665,0.075 0.81,-0.01 1.2825,-0.015 1.8525,-0.195 0.495,-0.15 0.8925,-0.405 1.6875,-0.915 0.8925,-0.57 1.1775,-0.8775 1.785,-0.9225 0.1275,-0.01 0.375,0.03 0.8775,0.105 1.44,0.225 1.47,0.315 1.8975,0.3075 0.885,-0.015 1.5375,-0.405 1.7175,-0.5175 0.6,-0.3825 0.915,-0.8625 1.0575,-1.08 0.082,-0.1275 0.2775,-0.4425 0.5475,-1.35 0.2775,-0.9225 0.195,-0.9675 0.4725,-1.9725 0.2925,-1.0575 0.525,-1.5 0.87,-1.8825 0.045,-0.045 0.195,-0.21 0.4275,-0.39 0.9825,-0.7575 2.1075,-0.7875 2.475,-0.7875 0.63,0 1.065,0.12 1.7625,0.315 0.945,0.27 1.05,0.4425 2.2425,0.8925 1.1775,0.4425 1.7775,0.66 2.5575,0.615 0.36,-0.023 0.7575,-0.135 1.5525,-0.36 1.41,-0.405 1.605,-0.645 2.325,-0.6225 0.495,0.015 0.9525,0.1425 1.4175,0.2775 0.6825,0.195 0.72,0.3 1.2375,0.3975 0.1575,0.03 0.1575,0.022 1.5225,0.075 0.6825,0.03 0.8775,0.038 1.1925,-0.03 0.3225,-0.067 0.33,-0.1275 0.7875,-0.27 0.2775,-0.082 0.7425,-0.225 1.245,-0.24 0.4725,-0.015 0.42,0.098 1.3425,0.2325 0.405,0.06 0.765,0.067 1.485,0.075 0.39,0 0.5925,0 0.795,-0.135 0.082,-0.053 0.2175,-0.1575 0.4275,-0.6375 0.285,-0.6225 0.2175,-0.8025 0.48,-1.32 0.165,-0.3225 0.2791,-0.5521 0.5416,-0.6571 0.2025,-0.082 0.555,-0.105 0.705,0.053 0.03,0.037 0.1102,0.1262 0.1109,0.1021 0.021,-0.7145 0.018,-1.4699 0.045,-2.1975 0.015,-0.51 0.023,-0.99 0.045,-1.9425 0.03,-1.7625 0,-1.59 0.023,-1.785 0,0 0.135,-1.095 0.068,-1.98 0,-0.068 -0.023,-0.1275 -0.023,-0.1275 0,0 -0.023,-0.082 -0.045,-0.135 -0.06,-0.1275 -0.63,-0.2175 -1.0875,0.06 -0.3675,0.225 -0.51,0.5925 -0.585,0.78 -0.1425,0.3675 -0.075,0.495 -0.1575,1.1025 -0.09,0.6525 -0.135,0.9825 -0.345,1.2675 -0.375,0.5025 -1.0125,0.615 -1.2225,0.645 -0.5475,0.09 -1.0125,-0.045 -1.5225,-0.195 -0.6525,-0.195 -0.7125,-0.3375 -1.1025,-0.3375 -0.5325,0 -0.945,0.285 -1.14,0.42 -0.57,0.39 -0.39,0.6 -0.9,0.9375 -0.5325,0.3525 -1.1925,0.4275 -1.6875,0.4875 -0.135,0.015 -0.225,0.023 -0.36,0.03 -0.465,0.03 -1.44,0.105 -2.5875,-0.03 -0.33,-0.038 -0.7875,-0.1125 -1.38,0.03 -0.068,0.015 -0.1275,0.03 -0.18,0.045 -0.1725,0.053 -0.525,0.165 -1.5675,0.9225 -0.3675,0.2625 -0.5475,0.39 -0.63,0.48 0,0 -0.135,0.135 -0.285,0.2325 l -0.15,0.09 c 0,0 -0.037,0.015 -0.068,0.03 -0.7725,0.345 -2.5875,-0.03 -2.5875,-0.03 -0.195,-0.037 -0.435,-0.09 -0.7425,-0.18 -0.45,-0.1275 -0.63,-0.21 -1.1025,-0.36 -0.3375,-0.105 -0.585,-0.165 -0.87,-0.24 -0.435,-0.1125 -1.32,-0.33 -2.37,-0.4275 -0.825,-0.075 -1.695,-0.1575 -2.775,0.082 -0.6825,0.15 -1.245,0.285 -1.725,0.78 -0.4275,0.4425 -0.5925,0.975 -0.705,1.35 -0.12,0.405 -0.15,0.78 -0.2175,1.53 -0.037,0.4875 -0.09,1.1325 -0.075,1.395 0,0.037 0.015,0.18 -0.01,0.3675 0,0 -0.01,0.068 -0.03,0.1425 -0.023,0.105 -0.5025,1.8525 -2.0475,2.4525 -0.66,0.255 -1.395,0.255 -1.7325,0.255 -0.375,0 -0.7125,-0.038 -1.2225,0.075 -0.2325,0.053 -0.5325,0.12 -0.8475,0.315 -0.285,0.1725 -0.435,0.3525 -0.9675,1.0425 -0.7575,0.9825 -0.7275,0.9675 -0.8025,1.02 -0.54,0.375 -1.3275,0.4875 -1.6725,0.54 -0.06,0.01 -0.105,0.015 -0.15,0.022 -0.855,0.105 -1.53,0.068 -1.8,0.053 -0.7125,-0.037 -1.5225,-0.082 -2.19,-0.082 -0.6825,0 -0.945,0.053 -2.205,0.165 -1.2525,0.12 -1.0125,0.068 -3.075,0.24 -2.64,0.2175 -2.4225,0.24 -3.675,0.3225 -0.885,0.053 -1.7925,0.083 -3.6,0.135 -2.565,0.075 -2.6175,0.038 -3.57,0.105 -0.1575,0.01 -1.755,0.1275 -3.7575,0.5475 -0.81,0.1725 -1.4175,0.33 -2.07,0.7425 -0.6375,0.3975 -1.0575,0.8625 -1.245,1.0875 -0.555,0.6675 -0.48,0.915 -1.08,1.7925 -0.375,0.555 -0.6975,1.0275 -1.26,1.4475 -0.5475,0.4125 -1.1025,0.5625 -2.205,0.8775 -0.975,0.2775 -1.47,0.4125 -2.13,0.4275 -0.96,0.03 -1.3275,-0.195 -1.8525,0.105 -0.2925,0.165 -0.7425,0.555 -0.945,0.8175 -0.082,0.098 -0.1725,0.225 -0.1725,0.225 -0.165,0.2175 -0.2475,0.3525 -0.285,0.3975 -0.285,0.3975 -1.1325,0.4125 -1.6875,0.42 -0.2925,0 -0.435,0 -0.6225,-0.023 -0.1875,-0.03 -0.345,-0.075 -0.6,-0.075 -0.105,0 -0.195,0.01 -0.2775,0.022 0,0 -0.1575,0.023 -0.3075,0.075 -0.6375,0.225 -1.2525,0.795 -1.2525,0.795 -0.7275,0.6825 -1.635,0.9525 -2.655,1.26 -0.735,0.2175 -0.585,0.067 -1.3425,0.285 -1.11,0.3225 -2.04,0.8325 -2.9175,1.32 -0.1875,0.105 -0.54,0.3 -1.05,0.5475 -0.3825,0.1875 -0.3975,0.18 -0.8475,0.39 -0.63,0.3 -1.125,0.555 -1.6725,0.8475 -0.3,0.1575 -0.5325,0.285 -0.6525,0.345 -1.4625,0.795 -2.9025,1.6275 -2.9025,1.6275 -2.3175,1.3425 -4.144,2.3576 -4.1365,2.3241 0.038,0.025 1.8415,-0.9741 3.9115,-2.1141 z"
       id="path33"
       sodipodi:nodetypes="cccccscccccccccccsccccscccccscsccccccccccccsccsccccscscccccccccccsccccccccccccscscccccccccccccccccccccccscccccccsccccccccccccccccccscccccccccccccc"
       style="fill:#000000;stroke-width:0.75" /><path
       class="st12"
       d="m -2291.456,-1226.0452 c 0.061,-0.067 0.9455,-0.5514 1.6462,-0.9359 0.6676,-0.3664 1.1137,-0.6697 1.7182,-0.9388 2.1975,-1.2075 2.5802,-1.4612 3.6302,-1.9562 0.54,-0.255 1.11,-0.525 2.28,-1.0875 0.6075,-0.2925 0.885,-0.4425 1.44,-0.6975 0.66,-0.3075 1.125,-0.57 1.815,-0.84 0.72,-0.2775 1.0275,-0.4725 1.5675,-0.6075 0.48,-0.12 0.4293,-0.1234 1.0893,-0.2959 0.495,-0.1275 0.6882,-0.1466 1.3257,-0.3191 0.6,-0.1575 0.66,-0.195 1.0875,-0.3225 0.45,-0.135 0.75,-0.3075 0.8325,-0.345 0.735,-0.2775 0.7725,-0.375 1.1775,-0.4725 0.2325,-0.06 0.182,-0.087 1.0145,-0.1545 0.6825,-0.053 1.0555,-0.018 1.4455,-0.1155 0.2925,-0.068 0.7275,-0.09 1.05,-0.255 0.3975,-0.2025 0.66,-0.3975 0.84,-0.5625 0.45,-0.42 0.4125,-0.4275 0.7275,-0.6825 0.1275,-0.105 0.3913,-0.2957 0.7363,-0.3257 0.24,-0.023 0.7262,-0.034 1.2812,-0.1693 0.5475,-0.135 0.4875,-0.21 1.245,-0.4275 0.285,-0.082 0.615,-0.1725 1.05,-0.2325 0.6825,-0.09 0.6495,-0.085 1.3395,-0.1521 0.6834,0.05 1.2405,-0.02 1.518,-0.3579 0.1575,-0.1875 0.1275,-0.3075 0.2625,-0.9075 0.098,-0.4275 0.2325,-1.0275 0.465,-1.515 0.315,-0.6525 0.78,-1.0425 1.095,-1.305 0.5475,-0.4575 1.0425,-0.66 1.6275,-0.9 1.0125,-0.42 1.86,-0.5625 2.1975,-0.615 0.705,-0.105 0.9867,-0.1362 2.5017,-0.1137 1.2,0.023 2.3489,0.035 3.5489,0.035 1.4925,0 2.2894,0 2.6644,-0.011 0.69,-0.015 0.9457,-0.047 3.2482,-0.1596 1.6875,-0.082 2.5702,-0.11 2.7802,-0.1175 0.8775,-0.023 0.685,-0.023 3.685,-0.01 1.4625,0 1.6758,-0.023 2.2458,0.01 0.7575,0.037 1.0217,0.1252 1.6667,0.1102 0.8175,-0.01 1.2841,0.026 1.8541,-0.154 0.5025,-0.15 0.9,-0.405 1.7025,-0.915 0.9,-0.5775 1.185,-0.8775 1.8,-0.9225 0.148,-0.06 0.4675,-0.043 0.97,0.032 1.455,0.225 1.4482,0.3209 1.8832,0.3134 0.8925,-0.015 1.4968,-0.3452 1.6768,-0.4577 0.6075,-0.3825 0.9225,-0.8625 1.065,-1.0875 0.082,-0.1275 0.2775,-0.45 0.555,-1.3575 0.285,-0.9225 0.195,-0.9675 0.4725,-1.98 0.2925,-1.0575 0.525,-1.5075 0.8775,-1.89 0.045,-0.045 0.195,-0.21 0.4275,-0.39 0.99,-0.765 2.1225,-0.7875 2.4975,-0.795 0.63,0 1.0959,0.088 1.7934,0.2828 0.9525,0.27 1.0175,0.3919 2.2175,0.8419 1.185,0.4425 1.8091,0.7428 2.5966,0.6978 0.36,-0.023 0.7575,-0.135 1.56,-0.36 1.4175,-0.405 1.6125,-0.645 2.34,-0.6225 0.5025,0.015 0.96,0.1425 1.425,0.2775 0.6825,0.195 0.7275,0.3 1.245,0.405 0.1575,0.03 0.1575,0.023 1.5375,0.075 0.69,0.03 0.885,0.038 1.2,-0.03 0.33,-0.067 0.3375,-0.1275 0.795,-0.27 0.2775,-0.082 0.75,-0.225 1.2525,-0.24 0.4725,-0.015 0.42,0.098 1.35,0.2325 0.405,0.06 0.765,0.067 1.4925,0.075 0.39,0 0.6,0 0.8025,-0.135 0.082,-0.053 0.2175,-0.1575 0.435,-0.6375 0.285,-0.6225 0.2175,-0.81 0.48,-1.32 0.165,-0.3225 0.2925,-0.555 0.555,-0.66 0.21,-0.082 0.3831,-0.1242 0.5988,-0.035 0.048,0 0.1563,0.1082 0.2112,0.1887 -0.067,2.6627 -0.1237,5.295 -0.175,7.9425 -1.0425,-0.3169 -6.0283,-1.6124 -8.5055,-2.1375 -3.915,-0.8325 -3.57,0.1425 -8.8125,-0.6075 0,0 -3.6903,-0.4613 -6.765,-0.51 -0.7513,-0.012 -0.9632,0.2155 -1.3425,0.855 -0.165,0.345 -0.3,0.63 -0.3975,1.1175 -0.09,0.465 -0.06,0.6825 -0.052,1.71 0,0.915 0.01,1.3725 -0.045,1.6125 -0.015,0.06 -0.2175,0.9825 -0.8175,1.6125 -0.855,0.8925 -2.22,0.885 -2.925,0.8775 -7.83,-0.045 -3.69,0.5175 -11.895,0 -0.435,-0.03 -1.2675,-0.082 -2.415,-0.1425 -1.8825,-0.105 -3.165,-0.1575 -3.9975,-0.195 -5.1975,-0.225 -5.865,-0.42 -8.7,-0.42 -1.74,0 -0.8925,0.075 -3.9525,0.165 -0.3375,0.01 -0.9825,0.03 -1.8225,0.195 -1.41,0.2775 -2.025,0.6975 -2.19,0.8175 -0.33,0.24 -0.7425,0.5475 -0.99,1.095 -0.1725,0.3975 -0.1875,0.7575 -0.2175,1.29 -0.03,0.735 -0.068,0.7725 -0.037,1.08 0.023,0.225 0.075,0.7725 -0.053,0.945 -0.082,0.105 -0.2025,0.27 -0.5175,0.3825 -0.315,0.12 -0.51,0.075 -0.6675,0.082 -0.285,0.01 -0.405,-0.03 -0.675,-0.12 -0.375,-0.12 -0.5175,-0.098 -1.26,-0.075 -0.825,0.03 -0.825,-0.09 -1.3125,-0.038 -0.4425,0.045 -0.7875,0.1725 -1.365,0.45 -1.14,0.54 -1.44,0.8325 -2.205,1.2225 -0.3,0.1575 -1.305,0.66 -2.61,0.915 -1.2825,0.255 -1.29,-0.037 -2.5575,0.195 -1.29,0.24 -1.3575,0.555 -3.0375,0.9525 -0.9975,0.2325 -1.02,0.135 -2.025,0.375 -0.84,0.2025 -1.47,0.4275 -2.6175,0.8775 -1.7175,0.6675 -2.5725,1.005 -3.57,1.455 -4.1125,1.8434 -8.8955,4.5549 -8.9896,4.6107 z"
       id="path34"
       sodipodi:nodetypes="cscssccsccccccccccccccccccccccscsccccccccscccccccccccccccccccccccccccccscccccccccsccsccccccccccccccccccc"
       style="stroke-width:0.75" /><path
       class="st3"
       d="M -2189.1814,-1231.9311"
       id="path35"
       style="fill:#000000;stroke-width:0.75" /></g></svg>
